<mxfile host="app.diagrams.net" modified="2023-12-08T09:01:29.692Z" agent="Mozilla/5.0 (Windows NT 10.0; Win64; x64) AppleWebKit/537.36 (KHTML, like Gecko) Chrome/119.0.0.0 Safari/537.36" etag="ZnYw6RSZYsavgt2bDZ-r" version="22.1.7" type="github">
  <diagram id="X1ojyS52s7-M8PCClS-w" name="Trang-1">
    <mxGraphModel dx="954" dy="602" grid="1" gridSize="10" guides="1" tooltips="1" connect="1" arrows="1" fold="1" page="1" pageScale="1" pageWidth="827" pageHeight="1169" math="0" shadow="0">
      <root>
        <mxCell id="0" />
        <mxCell id="1" parent="0" />
        <mxCell id="ogAQd3dcdi08tpSV0hbl-1" value="Mã mặt hàng" style="rounded=0;whiteSpace=wrap;html=1;fontStyle=4" vertex="1" parent="1">
          <mxGeometry x="160" y="80" width="100" height="40" as="geometry" />
        </mxCell>
        <mxCell id="ogAQd3dcdi08tpSV0hbl-2" value="Mặt hàng" style="text;html=1;strokeColor=none;fillColor=none;align=center;verticalAlign=middle;whiteSpace=wrap;rounded=0;" vertex="1" parent="1">
          <mxGeometry x="160" y="50" width="60" height="30" as="geometry" />
        </mxCell>
        <mxCell id="ogAQd3dcdi08tpSV0hbl-3" value="Đơn vị tính" style="rounded=0;whiteSpace=wrap;html=1;fontStyle=0" vertex="1" parent="1">
          <mxGeometry x="460" y="80" width="100" height="40" as="geometry" />
        </mxCell>
        <mxCell id="ogAQd3dcdi08tpSV0hbl-4" value="Tên mặt hàng" style="rounded=0;whiteSpace=wrap;html=1;fontStyle=0" vertex="1" parent="1">
          <mxGeometry x="260" y="80" width="100" height="40" as="geometry" />
        </mxCell>
        <mxCell id="ogAQd3dcdi08tpSV0hbl-5" value="Mô tả" style="rounded=0;whiteSpace=wrap;html=1;fontStyle=0" vertex="1" parent="1">
          <mxGeometry x="360" y="80" width="100" height="40" as="geometry" />
        </mxCell>
        <mxCell id="ogAQd3dcdi08tpSV0hbl-6" value="" style="rounded=0;whiteSpace=wrap;html=1;" vertex="1" parent="1">
          <mxGeometry x="260" y="920" width="100" height="40" as="geometry" />
        </mxCell>
        <mxCell id="ogAQd3dcdi08tpSV0hbl-7" value="Mã lệnh SX" style="rounded=0;whiteSpace=wrap;html=1;fontStyle=4" vertex="1" parent="1">
          <mxGeometry x="160" y="200" width="100" height="40" as="geometry" />
        </mxCell>
        <mxCell id="ogAQd3dcdi08tpSV0hbl-8" value="Lệnh sản xuất" style="text;html=1;strokeColor=none;fillColor=none;align=center;verticalAlign=middle;whiteSpace=wrap;rounded=0;" vertex="1" parent="1">
          <mxGeometry x="160" y="170" width="80" height="30" as="geometry" />
        </mxCell>
        <mxCell id="ogAQd3dcdi08tpSV0hbl-9" value="Tên phân xưởng" style="rounded=0;whiteSpace=wrap;html=1;" vertex="1" parent="1">
          <mxGeometry x="260" y="200" width="100" height="40" as="geometry" />
        </mxCell>
        <mxCell id="ogAQd3dcdi08tpSV0hbl-10" value="Ngày viết lệnh" style="rounded=0;whiteSpace=wrap;html=1;" vertex="1" parent="1">
          <mxGeometry x="360" y="200" width="100" height="40" as="geometry" />
        </mxCell>
        <mxCell id="ogAQd3dcdi08tpSV0hbl-11" value="Tên mặt hàng" style="rounded=0;whiteSpace=wrap;html=1;" vertex="1" parent="1">
          <mxGeometry x="460" y="200" width="100" height="40" as="geometry" />
        </mxCell>
        <mxCell id="ogAQd3dcdi08tpSV0hbl-12" value="Số lượng sản xuất" style="rounded=0;whiteSpace=wrap;html=1;" vertex="1" parent="1">
          <mxGeometry x="560" y="200" width="100" height="40" as="geometry" />
        </mxCell>
        <mxCell id="ogAQd3dcdi08tpSV0hbl-13" value="Mã phân xưởng" style="rounded=0;whiteSpace=wrap;html=1;fontStyle=4" vertex="1" parent="1">
          <mxGeometry x="160" y="320" width="100" height="40" as="geometry" />
        </mxCell>
        <mxCell id="ogAQd3dcdi08tpSV0hbl-14" value="Tên phân xưởng" style="rounded=0;whiteSpace=wrap;html=1;" vertex="1" parent="1">
          <mxGeometry x="260" y="320" width="100" height="40" as="geometry" />
        </mxCell>
        <mxCell id="ogAQd3dcdi08tpSV0hbl-15" value="Phân xưởng" style="text;html=1;strokeColor=none;fillColor=none;align=center;verticalAlign=middle;whiteSpace=wrap;rounded=0;" vertex="1" parent="1">
          <mxGeometry x="160" y="290" width="70" height="30" as="geometry" />
        </mxCell>
        <mxCell id="ogAQd3dcdi08tpSV0hbl-16" value="MS phiếu" style="rounded=0;whiteSpace=wrap;html=1;fontStyle=4" vertex="1" parent="1">
          <mxGeometry x="160" y="440" width="100" height="40" as="geometry" />
        </mxCell>
        <mxCell id="ogAQd3dcdi08tpSV0hbl-17" value="Phiếu xuất kho nguyên liệu" style="text;html=1;strokeColor=none;fillColor=none;align=center;verticalAlign=middle;whiteSpace=wrap;rounded=0;" vertex="1" parent="1">
          <mxGeometry x="160" y="410" width="100" height="30" as="geometry" />
        </mxCell>
        <mxCell id="ogAQd3dcdi08tpSV0hbl-18" value="Ngày xuất kho" style="rounded=0;whiteSpace=wrap;html=1;" vertex="1" parent="1">
          <mxGeometry x="260" y="440" width="100" height="40" as="geometry" />
        </mxCell>
        <mxCell id="ogAQd3dcdi08tpSV0hbl-19" value="Mã lệnh SX" style="rounded=0;whiteSpace=wrap;html=1;fontStyle=4" vertex="1" parent="1">
          <mxGeometry x="360" y="440" width="100" height="40" as="geometry" />
        </mxCell>
        <mxCell id="ogAQd3dcdi08tpSV0hbl-20" value="Mã phân xưởng" style="rounded=0;whiteSpace=wrap;html=1;fontStyle=4" vertex="1" parent="1">
          <mxGeometry x="460" y="440" width="100" height="40" as="geometry" />
        </mxCell>
        <mxCell id="ogAQd3dcdi08tpSV0hbl-21" value="Mã nguyên liệu" style="rounded=0;whiteSpace=wrap;html=1;" vertex="1" parent="1">
          <mxGeometry x="560" y="440" width="100" height="40" as="geometry" />
        </mxCell>
        <mxCell id="ogAQd3dcdi08tpSV0hbl-22" value="Số lượng" style="rounded=0;whiteSpace=wrap;html=1;" vertex="1" parent="1">
          <mxGeometry x="660" y="440" width="100" height="40" as="geometry" />
        </mxCell>
        <mxCell id="hwc81k95BObM7ho29JYe-1" value="MS phiếu" style="rounded=0;whiteSpace=wrap;html=1;fontStyle=4" vertex="1" parent="1">
          <mxGeometry x="160" y="560" width="100" height="40" as="geometry" />
        </mxCell>
        <mxCell id="hwc81k95BObM7ho29JYe-2" value="Tên mặt hàng" style="rounded=0;whiteSpace=wrap;html=1;" vertex="1" parent="1">
          <mxGeometry x="260" y="560" width="100" height="40" as="geometry" />
        </mxCell>
        <mxCell id="hwc81k95BObM7ho29JYe-3" value="Ngày nhập" style="rounded=0;whiteSpace=wrap;html=1;" vertex="1" parent="1">
          <mxGeometry x="360" y="560" width="100" height="40" as="geometry" />
        </mxCell>
        <mxCell id="hwc81k95BObM7ho29JYe-4" value="Mã phân xưởng" style="rounded=0;whiteSpace=wrap;html=1;fontStyle=4" vertex="1" parent="1">
          <mxGeometry x="460" y="560" width="100" height="40" as="geometry" />
        </mxCell>
        <mxCell id="hwc81k95BObM7ho29JYe-5" value="Số lượng SX" style="rounded=0;whiteSpace=wrap;html=1;" vertex="1" parent="1">
          <mxGeometry x="560" y="560" width="100" height="40" as="geometry" />
        </mxCell>
        <mxCell id="hwc81k95BObM7ho29JYe-7" value="Phiếu nhập kho thành phẩm" style="text;html=1;strokeColor=none;fillColor=none;align=center;verticalAlign=middle;whiteSpace=wrap;rounded=0;" vertex="1" parent="1">
          <mxGeometry x="160" y="530" width="100" height="30" as="geometry" />
        </mxCell>
        <mxCell id="hwc81k95BObM7ho29JYe-8" value="MS phiếu" style="rounded=0;whiteSpace=wrap;html=1;fontStyle=4" vertex="1" parent="1">
          <mxGeometry x="160" y="680" width="100" height="40" as="geometry" />
        </mxCell>
        <mxCell id="hwc81k95BObM7ho29JYe-9" value="Tên nguyên liệu" style="rounded=0;whiteSpace=wrap;html=1;" vertex="1" parent="1">
          <mxGeometry x="260" y="680" width="100" height="40" as="geometry" />
        </mxCell>
        <mxCell id="hwc81k95BObM7ho29JYe-10" value="Ngày nhập" style="rounded=0;whiteSpace=wrap;html=1;" vertex="1" parent="1">
          <mxGeometry x="360" y="680" width="100" height="40" as="geometry" />
        </mxCell>
        <mxCell id="hwc81k95BObM7ho29JYe-11" value="Mã phân xưởng" style="rounded=0;whiteSpace=wrap;html=1;fontStyle=4" vertex="1" parent="1">
          <mxGeometry x="460" y="680" width="100" height="40" as="geometry" />
        </mxCell>
        <mxCell id="hwc81k95BObM7ho29JYe-12" value="Số lượng thừa" style="rounded=0;whiteSpace=wrap;html=1;" vertex="1" parent="1">
          <mxGeometry x="560" y="680" width="100" height="40" as="geometry" />
        </mxCell>
        <mxCell id="hwc81k95BObM7ho29JYe-13" value="Phiếu nhập kho nguyên liệu" style="text;html=1;strokeColor=none;fillColor=none;align=center;verticalAlign=middle;whiteSpace=wrap;rounded=0;" vertex="1" parent="1">
          <mxGeometry x="160" y="650" width="100" height="30" as="geometry" />
        </mxCell>
        <mxCell id="hwc81k95BObM7ho29JYe-14" value="Mã mặt hàng" style="rounded=0;whiteSpace=wrap;html=1;fontStyle=4" vertex="1" parent="1">
          <mxGeometry x="160" y="800" width="100" height="40" as="geometry" />
        </mxCell>
        <mxCell id="hwc81k95BObM7ho29JYe-16" value="Bảng định mức nguyên liệu" style="text;html=1;strokeColor=none;fillColor=none;align=center;verticalAlign=middle;whiteSpace=wrap;rounded=0;" vertex="1" parent="1">
          <mxGeometry x="160" y="770" width="150" height="30" as="geometry" />
        </mxCell>
        <mxCell id="hwc81k95BObM7ho29JYe-17" value="Mã nguyên liệu" style="rounded=0;whiteSpace=wrap;html=1;fontStyle=4" vertex="1" parent="1">
          <mxGeometry x="260" y="800" width="100" height="40" as="geometry" />
        </mxCell>
        <mxCell id="hwc81k95BObM7ho29JYe-18" value="Số lượng" style="rounded=0;whiteSpace=wrap;html=1;" vertex="1" parent="1">
          <mxGeometry x="360" y="800" width="100" height="40" as="geometry" />
        </mxCell>
        <mxCell id="hwc81k95BObM7ho29JYe-19" value="" style="rounded=0;whiteSpace=wrap;html=1;" vertex="1" parent="1">
          <mxGeometry x="360" y="920" width="100" height="40" as="geometry" />
        </mxCell>
        <mxCell id="hwc81k95BObM7ho29JYe-20" value="" style="rounded=0;whiteSpace=wrap;html=1;" vertex="1" parent="1">
          <mxGeometry x="160" y="920" width="100" height="40" as="geometry" />
        </mxCell>
        <mxCell id="hwc81k95BObM7ho29JYe-21" value="" style="rounded=0;whiteSpace=wrap;html=1;" vertex="1" parent="1">
          <mxGeometry x="560" y="920" width="100" height="40" as="geometry" />
        </mxCell>
        <mxCell id="hwc81k95BObM7ho29JYe-22" value="" style="rounded=0;whiteSpace=wrap;html=1;" vertex="1" parent="1">
          <mxGeometry x="660" y="920" width="100" height="40" as="geometry" />
        </mxCell>
        <mxCell id="hwc81k95BObM7ho29JYe-23" value="" style="rounded=0;whiteSpace=wrap;html=1;" vertex="1" parent="1">
          <mxGeometry x="460" y="920" width="100" height="40" as="geometry" />
        </mxCell>
        <mxCell id="hwc81k95BObM7ho29JYe-24" value="" style="rounded=0;whiteSpace=wrap;html=1;" vertex="1" parent="1">
          <mxGeometry x="20" y="800" width="100" height="40" as="geometry" />
        </mxCell>
        <mxCell id="hwc81k95BObM7ho29JYe-25" value="SL&amp;nbsp; chênh lệch" style="rounded=0;whiteSpace=wrap;html=1;dashed=1;" vertex="1" parent="1">
          <mxGeometry x="660" y="560" width="100" height="40" as="geometry" />
        </mxCell>
        <mxCell id="hwc81k95BObM7ho29JYe-26" value="Nguyên vật liệu" style="text;html=1;strokeColor=none;fillColor=none;align=center;verticalAlign=middle;whiteSpace=wrap;rounded=0;" vertex="1" parent="1">
          <mxGeometry x="160" y="890" width="90" height="30" as="geometry" />
        </mxCell>
      </root>
    </mxGraphModel>
  </diagram>
</mxfile>
